<mxfile host="app.diagrams.net" modified="2024-09-01T10:54:43.105Z" agent="Mozilla/5.0 (Windows NT 10.0; Win64; x64) AppleWebKit/537.36 (KHTML, like Gecko) Chrome/127.0.0.0 Safari/537.36" etag="gmjqED9f7jtvFA4uQDAT" version="24.4.4" type="device">
  <diagram name="Page-1" id="JiBmMO2w3sIjemUaY1qB">
    <mxGraphModel dx="1615" dy="857" grid="1" gridSize="10" guides="1" tooltips="1" connect="1" arrows="1" fold="1" page="1" pageScale="1" pageWidth="827" pageHeight="1169" math="0" shadow="0">
      <root>
        <mxCell id="0" />
        <mxCell id="1" parent="0" />
        <mxCell id="RboJCZ0cxIW3_dfvBrTb-1" value="Shellcode" style="rounded=0;whiteSpace=wrap;html=1;fillColor=#f5f5f5;fontColor=#333333;strokeColor=#666666;" vertex="1" parent="1">
          <mxGeometry x="80" y="60" width="170" height="60" as="geometry" />
        </mxCell>
        <mxCell id="RboJCZ0cxIW3_dfvBrTb-2" value="Buffer" style="rounded=0;whiteSpace=wrap;html=1;fillColor=#dae8fc;strokeColor=#6c8ebf;" vertex="1" parent="1">
          <mxGeometry x="250" y="60" width="100" height="60" as="geometry" />
        </mxCell>
        <mxCell id="RboJCZ0cxIW3_dfvBrTb-3" value="ROP Chain" style="rounded=0;whiteSpace=wrap;html=1;fillColor=#d5e8d4;strokeColor=#82b366;" vertex="1" parent="1">
          <mxGeometry x="350" y="60" width="370" height="60" as="geometry" />
        </mxCell>
        <mxCell id="RboJCZ0cxIW3_dfvBrTb-5" value="chakra.dll + OFFSET_to_data" style="text;html=1;align=center;verticalAlign=middle;resizable=0;points=[];autosize=1;strokeColor=none;fillColor=none;" vertex="1" parent="1">
          <mxGeometry y="120" width="180" height="30" as="geometry" />
        </mxCell>
        <mxCell id="RboJCZ0cxIW3_dfvBrTb-15" style="edgeStyle=orthogonalEdgeStyle;rounded=0;orthogonalLoop=1;jettySize=auto;html=1;entryX=0;entryY=0;entryDx=0;entryDy=0;" edge="1" parent="1" source="RboJCZ0cxIW3_dfvBrTb-14">
          <mxGeometry relative="1" as="geometry">
            <mxPoint x="260" y="60" as="targetPoint" />
          </mxGeometry>
        </mxCell>
        <mxCell id="RboJCZ0cxIW3_dfvBrTb-14" value="X" style="text;html=1;align=center;verticalAlign=middle;resizable=0;points=[];autosize=1;strokeColor=none;fillColor=none;" vertex="1" parent="1">
          <mxGeometry x="245" width="30" height="30" as="geometry" />
        </mxCell>
        <mxCell id="RboJCZ0cxIW3_dfvBrTb-16" value="" style="rounded=0;whiteSpace=wrap;html=1;" vertex="1" parent="1">
          <mxGeometry x="440" y="60" width="20" height="60" as="geometry" />
        </mxCell>
        <mxCell id="RboJCZ0cxIW3_dfvBrTb-17" value="" style="rounded=0;whiteSpace=wrap;html=1;" vertex="1" parent="1">
          <mxGeometry x="590" y="60" width="20" height="60" as="geometry" />
        </mxCell>
        <mxCell id="RboJCZ0cxIW3_dfvBrTb-68" value="Shellcode" style="rounded=0;whiteSpace=wrap;html=1;fillColor=#e1d5e7;strokeColor=#9673a6;" vertex="1" parent="1">
          <mxGeometry x="80" y="295" width="170" height="60" as="geometry" />
        </mxCell>
        <mxCell id="RboJCZ0cxIW3_dfvBrTb-69" value="Buffer" style="rounded=0;whiteSpace=wrap;html=1;fillColor=#dae8fc;strokeColor=#6c8ebf;" vertex="1" parent="1">
          <mxGeometry x="250" y="295" width="100" height="60" as="geometry" />
        </mxCell>
        <mxCell id="RboJCZ0cxIW3_dfvBrTb-70" value="ROP Chain" style="rounded=0;whiteSpace=wrap;html=1;fillColor=#d5e8d4;strokeColor=#82b366;" vertex="1" parent="1">
          <mxGeometry x="350" y="295" width="370" height="60" as="geometry" />
        </mxCell>
        <mxCell id="RboJCZ0cxIW3_dfvBrTb-71" value="chakra.dll + OFFSET_to_data" style="text;html=1;align=center;verticalAlign=middle;resizable=0;points=[];autosize=1;strokeColor=none;fillColor=none;" vertex="1" parent="1">
          <mxGeometry y="355" width="180" height="30" as="geometry" />
        </mxCell>
        <mxCell id="RboJCZ0cxIW3_dfvBrTb-72" value="Storage" style="rounded=0;whiteSpace=wrap;html=1;fillColor=#f8cecc;strokeColor=#b85450;" vertex="1" parent="1">
          <mxGeometry x="260" y="295" width="90" height="60" as="geometry" />
        </mxCell>
        <mxCell id="RboJCZ0cxIW3_dfvBrTb-73" style="edgeStyle=orthogonalEdgeStyle;rounded=0;orthogonalLoop=1;jettySize=auto;html=1;entryX=0;entryY=0;entryDx=0;entryDy=0;" edge="1" parent="1" source="RboJCZ0cxIW3_dfvBrTb-74" target="RboJCZ0cxIW3_dfvBrTb-72">
          <mxGeometry relative="1" as="geometry" />
        </mxCell>
        <mxCell id="RboJCZ0cxIW3_dfvBrTb-74" value="X" style="text;html=1;align=center;verticalAlign=middle;resizable=0;points=[];autosize=1;strokeColor=none;fillColor=none;" vertex="1" parent="1">
          <mxGeometry x="245" y="235" width="30" height="30" as="geometry" />
        </mxCell>
        <mxCell id="RboJCZ0cxIW3_dfvBrTb-75" value="" style="rounded=0;whiteSpace=wrap;html=1;" vertex="1" parent="1">
          <mxGeometry x="440" y="295" width="20" height="60" as="geometry" />
        </mxCell>
        <mxCell id="RboJCZ0cxIW3_dfvBrTb-76" value="" style="rounded=0;whiteSpace=wrap;html=1;" vertex="1" parent="1">
          <mxGeometry x="590" y="295" width="20" height="60" as="geometry" />
        </mxCell>
        <mxCell id="RboJCZ0cxIW3_dfvBrTb-77" value="" style="rounded=0;whiteSpace=wrap;html=1;" vertex="1" parent="1">
          <mxGeometry x="80" y="425" width="640" height="60" as="geometry" />
        </mxCell>
        <mxCell id="RboJCZ0cxIW3_dfvBrTb-78" style="edgeStyle=orthogonalEdgeStyle;rounded=0;orthogonalLoop=1;jettySize=auto;html=1;entryX=0.5;entryY=1;entryDx=0;entryDy=0;exitX=0.503;exitY=1.013;exitDx=0;exitDy=0;exitPerimeter=0;" edge="1" parent="1" source="RboJCZ0cxIW3_dfvBrTb-80" target="RboJCZ0cxIW3_dfvBrTb-75">
          <mxGeometry relative="1" as="geometry">
            <Array as="points">
              <mxPoint x="80" y="565" />
              <mxPoint x="450" y="565" />
            </Array>
          </mxGeometry>
        </mxCell>
        <mxCell id="RboJCZ0cxIW3_dfvBrTb-79" style="edgeStyle=orthogonalEdgeStyle;rounded=0;orthogonalLoop=1;jettySize=auto;html=1;entryX=0;entryY=1;entryDx=0;entryDy=0;" edge="1" parent="1" source="RboJCZ0cxIW3_dfvBrTb-80" target="RboJCZ0cxIW3_dfvBrTb-81">
          <mxGeometry relative="1" as="geometry" />
        </mxCell>
        <mxCell id="RboJCZ0cxIW3_dfvBrTb-89" style="edgeStyle=orthogonalEdgeStyle;rounded=0;orthogonalLoop=1;jettySize=auto;html=1;entryX=0.5;entryY=1;entryDx=0;entryDy=0;" edge="1" parent="1" source="RboJCZ0cxIW3_dfvBrTb-80" target="RboJCZ0cxIW3_dfvBrTb-76">
          <mxGeometry relative="1" as="geometry" />
        </mxCell>
        <mxCell id="RboJCZ0cxIW3_dfvBrTb-80" value="JIT-CP RW- Memory" style="text;html=1;align=center;verticalAlign=middle;resizable=0;points=[];autosize=1;strokeColor=#d79b00;fillColor=#ffe6cc;" vertex="1" parent="1">
          <mxGeometry x="15" y="515" width="130" height="30" as="geometry" />
        </mxCell>
        <mxCell id="RboJCZ0cxIW3_dfvBrTb-81" value="Shellcode will be here" style="rounded=0;whiteSpace=wrap;html=1;fillColor=#f5f5f5;fontColor=#333333;strokeColor=#666666;" vertex="1" parent="1">
          <mxGeometry x="80" y="425" width="170" height="60" as="geometry" />
        </mxCell>
        <mxCell id="RboJCZ0cxIW3_dfvBrTb-82" value="" style="rounded=0;whiteSpace=wrap;html=1;" vertex="1" parent="1">
          <mxGeometry x="250" y="425" width="100" height="60" as="geometry" />
        </mxCell>
        <mxCell id="RboJCZ0cxIW3_dfvBrTb-84" value="Storage will&amp;nbsp;&lt;div&gt;be here&lt;/div&gt;" style="rounded=0;whiteSpace=wrap;html=1;fillColor=#f5f5f5;fontColor=#333333;strokeColor=#666666;" vertex="1" parent="1">
          <mxGeometry x="260" y="425" width="90" height="60" as="geometry" />
        </mxCell>
        <mxCell id="RboJCZ0cxIW3_dfvBrTb-87" style="edgeStyle=orthogonalEdgeStyle;rounded=0;orthogonalLoop=1;jettySize=auto;html=1;entryX=0;entryY=0;entryDx=0;entryDy=0;" edge="1" parent="1" source="RboJCZ0cxIW3_dfvBrTb-88">
          <mxGeometry relative="1" as="geometry">
            <mxPoint x="305" y="295" as="targetPoint" />
          </mxGeometry>
        </mxCell>
        <mxCell id="RboJCZ0cxIW3_dfvBrTb-88" value="Y" style="text;html=1;align=center;verticalAlign=middle;resizable=0;points=[];autosize=1;strokeColor=none;fillColor=none;" vertex="1" parent="1">
          <mxGeometry x="290" y="235" width="30" height="30" as="geometry" />
        </mxCell>
        <mxCell id="RboJCZ0cxIW3_dfvBrTb-90" style="edgeStyle=orthogonalEdgeStyle;rounded=0;orthogonalLoop=1;jettySize=auto;html=1;entryX=0;entryY=0;entryDx=0;entryDy=0;" edge="1" parent="1" source="RboJCZ0cxIW3_dfvBrTb-91">
          <mxGeometry relative="1" as="geometry">
            <mxPoint x="450" y="295" as="targetPoint" />
          </mxGeometry>
        </mxCell>
        <mxCell id="RboJCZ0cxIW3_dfvBrTb-94" value="" style="edgeStyle=orthogonalEdgeStyle;rounded=0;orthogonalLoop=1;jettySize=auto;html=1;" edge="1" parent="1" source="RboJCZ0cxIW3_dfvBrTb-91" target="RboJCZ0cxIW3_dfvBrTb-75">
          <mxGeometry relative="1" as="geometry" />
        </mxCell>
        <mxCell id="RboJCZ0cxIW3_dfvBrTb-91" value="VP Address" style="text;html=1;align=center;verticalAlign=middle;resizable=0;points=[];autosize=1;strokeColor=none;fillColor=none;" vertex="1" parent="1">
          <mxGeometry x="405" y="235" width="90" height="30" as="geometry" />
        </mxCell>
        <mxCell id="RboJCZ0cxIW3_dfvBrTb-95" value="" style="edgeStyle=orthogonalEdgeStyle;rounded=0;orthogonalLoop=1;jettySize=auto;html=1;" edge="1" parent="1" source="RboJCZ0cxIW3_dfvBrTb-96">
          <mxGeometry relative="1" as="geometry">
            <mxPoint x="600" y="295" as="targetPoint" />
          </mxGeometry>
        </mxCell>
        <mxCell id="RboJCZ0cxIW3_dfvBrTb-96" value="Ret Address" style="text;html=1;align=center;verticalAlign=middle;resizable=0;points=[];autosize=1;strokeColor=none;fillColor=none;" vertex="1" parent="1">
          <mxGeometry x="555" y="235" width="90" height="30" as="geometry" />
        </mxCell>
        <mxCell id="RboJCZ0cxIW3_dfvBrTb-99" value="" style="edgeStyle=orthogonalEdgeStyle;rounded=0;orthogonalLoop=1;jettySize=auto;html=1;" edge="1" parent="1" source="RboJCZ0cxIW3_dfvBrTb-100">
          <mxGeometry relative="1" as="geometry">
            <mxPoint x="450" y="60" as="targetPoint" />
          </mxGeometry>
        </mxCell>
        <mxCell id="RboJCZ0cxIW3_dfvBrTb-100" value="VP Address" style="text;html=1;align=center;verticalAlign=middle;resizable=0;points=[];autosize=1;strokeColor=none;fillColor=none;" vertex="1" parent="1">
          <mxGeometry x="405" width="90" height="30" as="geometry" />
        </mxCell>
        <mxCell id="RboJCZ0cxIW3_dfvBrTb-101" value="" style="edgeStyle=orthogonalEdgeStyle;rounded=0;orthogonalLoop=1;jettySize=auto;html=1;" edge="1" parent="1" source="RboJCZ0cxIW3_dfvBrTb-102">
          <mxGeometry relative="1" as="geometry">
            <mxPoint x="600" y="60" as="targetPoint" />
          </mxGeometry>
        </mxCell>
        <mxCell id="RboJCZ0cxIW3_dfvBrTb-102" value="Ret Address" style="text;html=1;align=center;verticalAlign=middle;resizable=0;points=[];autosize=1;strokeColor=none;fillColor=none;" vertex="1" parent="1">
          <mxGeometry x="555" width="90" height="30" as="geometry" />
        </mxCell>
        <mxCell id="RboJCZ0cxIW3_dfvBrTb-107" value="Storage" style="rounded=0;whiteSpace=wrap;html=1;fillColor=#f8cecc;strokeColor=#b85450;" vertex="1" parent="1">
          <mxGeometry x="260" y="60" width="90" height="60" as="geometry" />
        </mxCell>
        <mxCell id="RboJCZ0cxIW3_dfvBrTb-108" style="edgeStyle=orthogonalEdgeStyle;rounded=0;orthogonalLoop=1;jettySize=auto;html=1;entryX=0;entryY=0;entryDx=0;entryDy=0;" edge="1" parent="1" source="RboJCZ0cxIW3_dfvBrTb-109">
          <mxGeometry relative="1" as="geometry">
            <mxPoint x="305" y="60" as="targetPoint" />
          </mxGeometry>
        </mxCell>
        <mxCell id="RboJCZ0cxIW3_dfvBrTb-109" value="Y" style="text;html=1;align=center;verticalAlign=middle;resizable=0;points=[];autosize=1;strokeColor=none;fillColor=none;" vertex="1" parent="1">
          <mxGeometry x="290" width="30" height="30" as="geometry" />
        </mxCell>
        <mxCell id="RboJCZ0cxIW3_dfvBrTb-130" value="Shellcode" style="rounded=0;whiteSpace=wrap;html=1;fillColor=#e1d5e7;strokeColor=#9673a6;" vertex="1" parent="1">
          <mxGeometry x="80" y="700" width="170" height="60" as="geometry" />
        </mxCell>
        <mxCell id="RboJCZ0cxIW3_dfvBrTb-131" value="Buffer" style="rounded=0;whiteSpace=wrap;html=1;fillColor=#dae8fc;strokeColor=#6c8ebf;" vertex="1" parent="1">
          <mxGeometry x="250" y="700" width="100" height="60" as="geometry" />
        </mxCell>
        <mxCell id="RboJCZ0cxIW3_dfvBrTb-132" value="ROP Chain" style="rounded=0;whiteSpace=wrap;html=1;fillColor=#d5e8d4;strokeColor=#82b366;" vertex="1" parent="1">
          <mxGeometry x="350" y="700" width="370" height="60" as="geometry" />
        </mxCell>
        <mxCell id="RboJCZ0cxIW3_dfvBrTb-133" value="chakra.dll + OFFSET_to_data" style="text;html=1;align=center;verticalAlign=middle;resizable=0;points=[];autosize=1;strokeColor=none;fillColor=none;" vertex="1" parent="1">
          <mxGeometry y="760" width="180" height="30" as="geometry" />
        </mxCell>
        <mxCell id="RboJCZ0cxIW3_dfvBrTb-134" value="Storage" style="rounded=0;whiteSpace=wrap;html=1;fillColor=#f8cecc;strokeColor=#b85450;" vertex="1" parent="1">
          <mxGeometry x="260" y="700" width="90" height="60" as="geometry" />
        </mxCell>
        <mxCell id="RboJCZ0cxIW3_dfvBrTb-135" style="edgeStyle=orthogonalEdgeStyle;rounded=0;orthogonalLoop=1;jettySize=auto;html=1;entryX=0;entryY=0;entryDx=0;entryDy=0;" edge="1" parent="1" source="RboJCZ0cxIW3_dfvBrTb-136" target="RboJCZ0cxIW3_dfvBrTb-134">
          <mxGeometry relative="1" as="geometry" />
        </mxCell>
        <mxCell id="RboJCZ0cxIW3_dfvBrTb-136" value="X" style="text;html=1;align=center;verticalAlign=middle;resizable=0;points=[];autosize=1;strokeColor=none;fillColor=none;" vertex="1" parent="1">
          <mxGeometry x="245" y="640" width="30" height="30" as="geometry" />
        </mxCell>
        <mxCell id="RboJCZ0cxIW3_dfvBrTb-137" value="" style="rounded=0;whiteSpace=wrap;html=1;fillColor=#ffe6cc;strokeColor=#d79b00;" vertex="1" parent="1">
          <mxGeometry x="440" y="700" width="20" height="60" as="geometry" />
        </mxCell>
        <mxCell id="RboJCZ0cxIW3_dfvBrTb-138" value="" style="rounded=0;whiteSpace=wrap;html=1;fillColor=#ffe6cc;strokeColor=#d79b00;" vertex="1" parent="1">
          <mxGeometry x="590" y="700" width="20" height="60" as="geometry" />
        </mxCell>
        <mxCell id="RboJCZ0cxIW3_dfvBrTb-139" value="" style="rounded=0;whiteSpace=wrap;html=1;" vertex="1" parent="1">
          <mxGeometry x="80" y="830" width="640" height="60" as="geometry" />
        </mxCell>
        <mxCell id="RboJCZ0cxIW3_dfvBrTb-145" value="" style="rounded=0;whiteSpace=wrap;html=1;fillColor=#dae8fc;strokeColor=#6c8ebf;" vertex="1" parent="1">
          <mxGeometry x="250" y="830" width="100" height="60" as="geometry" />
        </mxCell>
        <mxCell id="RboJCZ0cxIW3_dfvBrTb-147" style="edgeStyle=orthogonalEdgeStyle;rounded=0;orthogonalLoop=1;jettySize=auto;html=1;entryX=0;entryY=0;entryDx=0;entryDy=0;" edge="1" parent="1" source="RboJCZ0cxIW3_dfvBrTb-148">
          <mxGeometry relative="1" as="geometry">
            <mxPoint x="305" y="700" as="targetPoint" />
          </mxGeometry>
        </mxCell>
        <mxCell id="RboJCZ0cxIW3_dfvBrTb-148" value="Y" style="text;html=1;align=center;verticalAlign=middle;resizable=0;points=[];autosize=1;strokeColor=none;fillColor=none;" vertex="1" parent="1">
          <mxGeometry x="290" y="640" width="30" height="30" as="geometry" />
        </mxCell>
        <mxCell id="RboJCZ0cxIW3_dfvBrTb-149" style="edgeStyle=orthogonalEdgeStyle;rounded=0;orthogonalLoop=1;jettySize=auto;html=1;entryX=0;entryY=0;entryDx=0;entryDy=0;" edge="1" parent="1" source="RboJCZ0cxIW3_dfvBrTb-151">
          <mxGeometry relative="1" as="geometry">
            <mxPoint x="450" y="700" as="targetPoint" />
          </mxGeometry>
        </mxCell>
        <mxCell id="RboJCZ0cxIW3_dfvBrTb-150" value="" style="edgeStyle=orthogonalEdgeStyle;rounded=0;orthogonalLoop=1;jettySize=auto;html=1;" edge="1" parent="1" source="RboJCZ0cxIW3_dfvBrTb-151" target="RboJCZ0cxIW3_dfvBrTb-137">
          <mxGeometry relative="1" as="geometry" />
        </mxCell>
        <mxCell id="RboJCZ0cxIW3_dfvBrTb-151" value="VP Address" style="text;html=1;align=center;verticalAlign=middle;resizable=0;points=[];autosize=1;strokeColor=none;fillColor=none;" vertex="1" parent="1">
          <mxGeometry x="405" y="640" width="90" height="30" as="geometry" />
        </mxCell>
        <mxCell id="RboJCZ0cxIW3_dfvBrTb-152" value="" style="edgeStyle=orthogonalEdgeStyle;rounded=0;orthogonalLoop=1;jettySize=auto;html=1;" edge="1" parent="1" source="RboJCZ0cxIW3_dfvBrTb-153">
          <mxGeometry relative="1" as="geometry">
            <mxPoint x="600" y="700" as="targetPoint" />
          </mxGeometry>
        </mxCell>
        <mxCell id="RboJCZ0cxIW3_dfvBrTb-153" value="Ret Address" style="text;html=1;align=center;verticalAlign=middle;resizable=0;points=[];autosize=1;strokeColor=none;fillColor=none;" vertex="1" parent="1">
          <mxGeometry x="555" y="640" width="90" height="30" as="geometry" />
        </mxCell>
        <mxCell id="RboJCZ0cxIW3_dfvBrTb-154" value="Shellcode" style="rounded=0;whiteSpace=wrap;html=1;fillColor=#e1d5e7;strokeColor=#9673a6;" vertex="1" parent="1">
          <mxGeometry x="80" y="830" width="170" height="60" as="geometry" />
        </mxCell>
        <mxCell id="RboJCZ0cxIW3_dfvBrTb-155" value="ROP Chain" style="rounded=0;whiteSpace=wrap;html=1;fillColor=#d5e8d4;strokeColor=#82b366;" vertex="1" parent="1">
          <mxGeometry x="350" y="830" width="370" height="60" as="geometry" />
        </mxCell>
        <mxCell id="RboJCZ0cxIW3_dfvBrTb-156" value="Storage" style="rounded=0;whiteSpace=wrap;html=1;fillColor=#f8cecc;strokeColor=#b85450;" vertex="1" parent="1">
          <mxGeometry x="260" y="830" width="90" height="60" as="geometry" />
        </mxCell>
        <mxCell id="RboJCZ0cxIW3_dfvBrTb-157" value="" style="rounded=0;whiteSpace=wrap;html=1;fillColor=#ffe6cc;strokeColor=#d79b00;" vertex="1" parent="1">
          <mxGeometry x="440" y="830" width="20" height="60" as="geometry" />
        </mxCell>
        <mxCell id="RboJCZ0cxIW3_dfvBrTb-158" value="" style="rounded=0;whiteSpace=wrap;html=1;fillColor=#ffe6cc;strokeColor=#d79b00;" vertex="1" parent="1">
          <mxGeometry x="590" y="830" width="20" height="60" as="geometry" />
        </mxCell>
        <mxCell id="RboJCZ0cxIW3_dfvBrTb-159" value="JIT-CP RW- Memory" style="text;html=1;align=center;verticalAlign=middle;resizable=0;points=[];autosize=1;strokeColor=none;fillColor=none;" vertex="1" parent="1">
          <mxGeometry x="25" y="890" width="130" height="30" as="geometry" />
        </mxCell>
        <mxCell id="RboJCZ0cxIW3_dfvBrTb-160" value="ACG-CP" style="text;html=1;align=center;verticalAlign=middle;resizable=0;points=[];autosize=1;strokeColor=none;fillColor=none;" vertex="1" parent="1">
          <mxGeometry x="735" y="75" width="70" height="30" as="geometry" />
        </mxCell>
        <mxCell id="RboJCZ0cxIW3_dfvBrTb-161" value="ACG-CP" style="text;html=1;align=center;verticalAlign=middle;resizable=0;points=[];autosize=1;strokeColor=none;fillColor=none;" vertex="1" parent="1">
          <mxGeometry x="720" y="310" width="70" height="30" as="geometry" />
        </mxCell>
        <mxCell id="RboJCZ0cxIW3_dfvBrTb-162" value="JIT-CP" style="text;html=1;align=center;verticalAlign=middle;resizable=0;points=[];autosize=1;strokeColor=none;fillColor=none;" vertex="1" parent="1">
          <mxGeometry x="725" y="440" width="60" height="30" as="geometry" />
        </mxCell>
        <mxCell id="RboJCZ0cxIW3_dfvBrTb-163" value="ACG-CP" style="text;html=1;align=center;verticalAlign=middle;resizable=0;points=[];autosize=1;strokeColor=none;fillColor=none;" vertex="1" parent="1">
          <mxGeometry x="720" y="710" width="70" height="30" as="geometry" />
        </mxCell>
        <mxCell id="RboJCZ0cxIW3_dfvBrTb-164" value="JIT-CP" style="text;html=1;align=center;verticalAlign=middle;resizable=0;points=[];autosize=1;strokeColor=none;fillColor=none;" vertex="1" parent="1">
          <mxGeometry x="725" y="840" width="60" height="30" as="geometry" />
        </mxCell>
      </root>
    </mxGraphModel>
  </diagram>
</mxfile>
